<svg width="24" height="24" viewBox="0 0 24 24" fill="none" xmlns="http://www.w3.org/2000/svg">
<path d="M16.5 18H7.5C6.11929 18 5 19.1193 5 20.5C5 21.8807 6.11929 23 7.5 23H16.5C17.8807 23 19 21.8807 19 20.5C19 19.1193 17.8807 18 16.5 18Z" fill="#0068FF"/>
<path d="M14 11H10V18H14V11Z" fill="#0068FF"/>
<path d="M18 16H6L4 0H20L18 16Z" fill="#0068FF"/>
<path d="M11.9999 2.76001L12.9699 4.67001L15.0799 5L13.5599 6.51001L13.8999 8.62L11.9999 7.64001L10.0999 8.62L10.4399 6.51001L8.91992 5L11.0299 4.67001L11.9999 2.76001Z" fill="white"/>
</svg>
